<?xml version="1.0" encoding="utf-8"?>
<!-- Generator: Adobe Illustrator 24.3.0, SVG Export Plug-In . SVG Version: 6.00 Build 0)  -->
<svg version="1.1" id="Layer_1" xmlns="http://www.w3.org/2000/svg" xmlns:xlink="http://www.w3.org/1999/xlink" x="0px" y="0px"
	 viewBox="0 0 207.3 45.1" style="enable-background:new 0 0 207.3 45.1;" xml:space="preserve">
<style type="text/css">
	.st0{fill:#FFFFFF;}
</style>
<g>
	<g>
		<path class="st0" d="M2.3,34.9c-0.2,0-0.3,0-0.5,0.1C2,34.9,2.2,34.9,2.3,34.9z"/>
		<path class="st0" d="M3,34.8c0.1,0,0.2,0,0.3-0.1c0,0,0,0,0,0C3.2,34.7,3.1,34.7,3,34.8z"/>
		<path class="st0" d="M1.2,35c-0.1,0-0.3,0-0.4,0C1,35,1.1,35,1.2,35z"/>
		<path class="st0" d="M13.6,28.6C13.6,28.6,13.7,28.6,13.6,28.6c0.1-0.1,0.2-0.2,0.3-0.3C13.8,28.5,13.7,28.6,13.6,28.6z"/>
		<path class="st0" d="M14.3,27.9c0.1-0.2,0.3-0.3,0.4-0.5C14.6,27.6,14.5,27.7,14.3,27.9z"/>
		<path class="st0" d="M21.9,28.4c-0.1,0-0.2,0-0.3,0C21.7,28.4,21.8,28.4,21.9,28.4z"/>
		<path class="st0" d="M33.7,34.8c-0.1-0.1-0.2-0.2-0.2-0.3c0,0,0,0,0,0C33.6,34.7,33.7,34.8,33.7,34.8z"/>
		<path class="st0" d="M34.8,36.2c0.2,0.3,0.4,0.5,0.5,0.8C35.1,36.7,34.9,36.4,34.8,36.2z"/>
		<path class="st0" d="M23.1,28.6c-0.1,0-0.2,0-0.3-0.1C22.9,28.6,23,28.6,23.1,28.6z"/>
		<path class="st0" d="M34.1,35.3c0.1,0.2,0.3,0.3,0.4,0.5C34.4,35.6,34.2,35.4,34.1,35.3z"/>
		<path class="st0" d="M3.3,34.7c0.1,0,0.1,0,0.2,0C3.4,34.7,3.3,34.7,3.3,34.7C3.3,34.7,3.3,34.7,3.3,34.7z"/>
		<path class="st0" d="M13.5,28.8c0.1-0.1,0.1-0.1,0.2-0.2c0,0,0,0,0,0C13.6,28.7,13.5,28.8,13.5,28.8z"/>
		<path class="st0" d="M9.8,32c-0.1,0.1-0.3,0.2-0.4,0.3C9.5,32.2,9.6,32.1,9.8,32z"/>
		<path class="st0" d="M13.1,29.3c-0.1,0.1-0.3,0.3-0.4,0.4C12.8,29.6,12.9,29.4,13.1,29.3z"/>
		<path class="st0" d="M8.8,32.6c-0.2,0.1-0.3,0.2-0.5,0.3C8.5,32.8,8.6,32.7,8.8,32.6z"/>
		<path class="st0" d="M7.8,33.1c-0.2,0.1-0.3,0.2-0.5,0.2C7.4,33.3,7.6,33.2,7.8,33.1z"/>
		<path class="st0" d="M12.2,30.1c-0.1,0.1-0.3,0.2-0.4,0.4C11.9,30.4,12,30.3,12.2,30.1z"/>
		<path class="st0" d="M10.6,31.4c-0.1,0.1-0.2,0.2-0.3,0.2C10.4,31.5,10.5,31.4,10.6,31.4z"/>
		<path class="st0" d="M6.7,33.6c-0.2,0.1-0.3,0.1-0.5,0.2C6.4,33.8,6.5,33.7,6.7,33.6z"/>
		<path class="st0" d="M4.5,34.4c-0.2,0-0.3,0.1-0.5,0.1C4.2,34.5,4.4,34.4,4.5,34.4z"/>
		<path class="st0" d="M5.6,34c-0.2,0.1-0.3,0.1-0.5,0.2C5.3,34.2,5.5,34.1,5.6,34z"/>
		<path class="st0" d="M24,28.8c0.1,0,0.1,0,0.2,0.1C24.1,28.9,24,28.8,24,28.8z"/>
		<path class="st0" d="M31.8,32.9c0.1,0.1,0.3,0.2,0.4,0.3C32,33.1,31.9,33,31.8,32.9z"/>
		<path class="st0" d="M30.9,32.2c0.1,0.1,0.2,0.2,0.4,0.3C31.1,32.3,31,32.3,30.9,32.2z"/>
		<path class="st0" d="M32.6,33.6c0.1,0.1,0.2,0.2,0.4,0.4C32.8,33.9,32.7,33.7,32.6,33.6z"/>
		<path class="st0" d="M30,31.5c0.1,0.1,0.2,0.2,0.4,0.2C30.2,31.7,30.1,31.6,30,31.5z"/>
		<path class="st0" d="M28.2,30.5c0,0,0.1,0,0.1,0.1C28.3,30.5,28.2,30.5,28.2,30.5z"/>
		<path class="st0" d="M29,30.9c0.1,0.1,0.2,0.1,0.3,0.2C29.2,31,29.1,31,29,30.9z"/>
		<path class="st0" d="M33.5,34.6C33.5,34.6,33.5,34.6,33.5,34.6c0,0-0.1-0.1-0.1-0.1C33.4,34.5,33.5,34.5,33.5,34.6z"/>
		<path class="st0" d="M35.3,37c-0.2-0.3-0.3-0.5-0.5-0.8c-0.1-0.1-0.2-0.3-0.3-0.4c-0.1-0.2-0.2-0.3-0.4-0.5
			c-0.1-0.1-0.2-0.3-0.4-0.4c-0.1-0.1-0.2-0.2-0.2-0.3c0,0-0.1-0.1-0.1-0.1c-0.1-0.1-0.3-0.3-0.4-0.4c-0.1-0.1-0.2-0.2-0.4-0.4
			c-0.2-0.1-0.3-0.3-0.5-0.4c-0.1-0.1-0.2-0.2-0.4-0.3c-0.2-0.1-0.3-0.3-0.5-0.4c-0.1-0.1-0.2-0.2-0.4-0.3c-0.2-0.1-0.4-0.3-0.6-0.4
			c-0.1-0.1-0.2-0.2-0.4-0.2c-0.2-0.1-0.4-0.3-0.6-0.4C29.2,31,29.1,31,29,30.9c-0.2-0.1-0.5-0.3-0.7-0.4c0,0-0.1,0-0.1-0.1
			c-1.2-0.7-2.6-1.2-4-1.6c-0.1,0-0.1,0-0.2-0.1c-0.3-0.1-0.6-0.2-0.9-0.2l0,0c-0.1,0-0.2,0-0.3-0.1c-0.3-0.1-0.6-0.1-0.9-0.2
			c-0.1,0-0.2,0-0.3,0c-0.3,0-0.6-0.1-0.9-0.1c-0.7-0.1-1.5-0.1-2.2-0.1c-1.1,0-2.2,0.1-3.2,0.2c-3.4,4.3-8.1,7-12.9,7.5
			c-0.3,0.4-0.6,0.8-0.8,1.2l4.8,2.6c2.2-3.9,6.8-6.6,12.1-6.6s9.9,2.7,12.1,6.6l4.8-2.6C35.3,37,35.3,37,35.3,37z"/>
		<polygon class="st0" points="0.1,35.1 0.2,35.1 0.2,35.1 		"/>
		<path class="st0" d="M17.7,7c-0.2-0.4-0.4-0.9-0.6-1.3l-4.6,2.9c2.3,3.9,2.3,9.2-0.3,13.8C9.5,27,4.8,29.6,0.3,29.6l-0.2,5.5
			c0.2,0,0.5,0,0.7,0c0.1,0,0.3,0,0.4,0c0.2,0,0.4,0,0.6-0.1c0.2,0,0.3,0,0.5-0.1c0.2,0,0.4-0.1,0.6-0.1c0.1,0,0.2,0,0.3-0.1
			c0.1,0,0.1,0,0.2,0c0.2,0,0.4-0.1,0.6-0.1c0.2,0,0.3-0.1,0.5-0.1c0.2-0.1,0.4-0.1,0.6-0.2c0.2-0.1,0.3-0.1,0.5-0.2
			C5.8,34,6,33.9,6.2,33.8c0.2-0.1,0.3-0.1,0.5-0.2c0.2-0.1,0.4-0.2,0.6-0.3c0.2-0.1,0.3-0.2,0.5-0.2c0.2-0.1,0.4-0.2,0.6-0.3
			c0.2-0.1,0.3-0.2,0.5-0.3c0.2-0.1,0.4-0.2,0.6-0.3c0.1-0.1,0.3-0.2,0.4-0.3c0.2-0.1,0.4-0.2,0.5-0.4c0.1-0.1,0.2-0.2,0.3-0.2
			c0.4-0.3,0.7-0.6,1.1-0.9c0.1-0.1,0.3-0.2,0.4-0.4c0.2-0.1,0.3-0.3,0.5-0.4c0.1-0.1,0.3-0.3,0.4-0.4c0.1-0.1,0.3-0.3,0.4-0.5
			c0.1-0.1,0.1-0.1,0.2-0.2c0.1-0.1,0.2-0.2,0.3-0.3c0.1-0.2,0.3-0.3,0.4-0.5c0.1-0.2,0.3-0.3,0.4-0.5c0.1-0.2,0.3-0.3,0.4-0.5
			c0.5-0.6,0.9-1.3,1.3-2c0.5-0.9,1-1.9,1.4-2.9C15.7,16.9,15.8,11.5,17.7,7z"/>
		<path class="st0" d="M36.2,29.4c-4.5,0-9.1-2.6-11.8-7.2c-2.6-4.6-2.6-9.9-0.3-13.8l-4.6-2.9c-0.5,0.9-0.9,1.9-1.3,2.9
			c-1.2,3.7-1.2,7.9,0.1,12c0.3,0.8,0.6,1.6,0.9,2.4c0.3,0.6,0.6,1.2,0.9,1.8c0.5,0.9,1.2,1.8,1.8,2.7c5.4,0.8,10.1,3.5,13,7.4
			c0.5,0.1,1,0.1,1.4,0.1L36.2,29.4z"/>
	</g>
</g>
<g>
	<g>
		<path class="st0" d="M59.3,12.3l9.9,21.4h-3.8l-1.5-3.3H52.8l-1.6,3.3h-3.8l10.1-21.4H59.3z M54.4,26.9h7.8l-3.9-8.4L54.4,26.9z"
			/>
		<path class="st0" d="M94,30.2v3.5H82.1V12.3h3.5v17.9H94z"/>
		<path class="st0" d="M121.9,33.7l-7.2-8.3l-3.1,3.4v4.9h-3.5V12.3h3.5v11.2l10.1-11.2h4.7l-9.4,10.4l9.2,11L121.9,33.7L121.9,33.7
			z"/>
		<path class="st0" d="M154.4,15.8h-10.1v5.4h6.7v3.5h-6.7v5.4h10.1v3.5h-13.6V12.3h13.6V15.8z"/>
		<path class="st0" d="M187.4,12.3h2.7v21.4h-3.5V19.6L179,32l-7.7-12.4v14.1h-3.5V12.3h2.8l8.4,13.6L187.4,12.3z"/>
	</g>
	<rect x="203.1" y="12.4" class="st0" width="3.9" height="21.2"/>
</g>
</svg>
