<svg xmlns="http://www.w3.org/2000/svg" width="178.255" height="30.512" viewBox="0 0 178.255 30.512"><defs><style>.a{fill:#fff;}</style></defs><path class="a" d="M15.692,33.248c-.135.02-.27.034-.4.051C15.422,33.282,15.557,33.268,15.692,33.248Z" transform="translate(-13.803 -6.855)"/><path class="a" d="M16.228,33.152c.087-.016.173-.028.26-.046l0-.005Z" transform="translate(-13.803 -6.855)"/><path class="a" d="M14.734,33.362c-.11.009-.219.011-.329.018C14.514,33.373,14.624,33.371,14.734,33.362Z" transform="translate(-13.803 -6.855)"/><path class="a" d="M25.437,27.881h.006c.074-.081.148-.163.22-.246C25.59,27.717,25.513,27.8,25.437,27.881Z" transform="translate(-13.803 -7.226)"/><path class="a" d="M26.018,27.214c.114-.138.228-.278.339-.42C26.246,26.936,26.132,27.075,26.018,27.214Z" transform="translate(-13.803 -7.255)"/><path class="a" d="M32.53,27.655l-.263-.041C32.355,27.626,32.443,27.641,32.53,27.655Z" transform="translate(-13.803 -7.232)"/><path class="a" d="M42.754,33.224c-.067-.079-.131-.16-.2-.237l-.008,0C42.616,33.063,42.685,33.143,42.754,33.224Z" transform="translate(-13.803 -6.855)"/><path class="a" d="M43.641,34.36c.157.226.306.456.449.69C43.947,34.817,43.8,34.586,43.641,34.36Z" transform="translate(-13.803 -6.855)"/><path class="a" d="M33.553,27.848c-.079-.017-.157-.036-.237-.052C33.4,27.812,33.474,27.83,33.553,27.848Z" transform="translate(-13.803 -7.225)"/><path class="a" d="M43.065,33.592c.113.142.22.288.328.433C43.285,33.88,43.178,33.734,43.065,33.592Z" transform="translate(-13.803 -6.855)"/><path class="a" d="M16.488,33.106l.158-.035c-.051.011-.1.019-.154.03Z" transform="translate(-13.803 -6.855)"/><path class="a" d="M25.308,28.022c.045-.048.091-.094.135-.143h-.006C25.394,27.928,25.351,27.976,25.308,28.022Z" transform="translate(-13.803 -7.219)"/><path class="a" d="M22.107,30.737c-.127.084-.252.17-.38.25C21.855,30.907,21.981,30.821,22.107,30.737Z" transform="translate(-13.803 -7.105)"/><path class="a" d="M24.932,28.42c-.121.122-.245.239-.369.357C24.686,28.659,24.811,28.542,24.932,28.42Z" transform="translate(-13.803 -7.192)"/><path class="a" d="M21.246,31.27c-.132.076-.262.154-.4.226C20.983,31.424,21.114,31.346,21.246,31.27Z" transform="translate(-13.803 -7.085)"/><path class="a" d="M20.36,31.748c-.135.068-.27.136-.407.2C20.089,31.884,20.224,31.816,20.36,31.748Z" transform="translate(-13.803 -6.855)"/><path class="a" d="M24.165,29.153c-.124.111-.252.215-.378.322C23.913,29.369,24.041,29.264,24.165,29.153Z" transform="translate(-13.803 -7.165)"/><path class="a" d="M22.84,30.226c-.087.064-.172.133-.26.195C22.669,30.359,22.753,30.29,22.84,30.226Z" transform="translate(-13.803 -7.126)"/><path class="a" d="M19.453,32.168c-.138.059-.276.116-.415.171C19.177,32.285,19.315,32.227,19.453,32.168Z" transform="translate(-13.803 -6.855)"/><path class="a" d="M17.594,32.83c-.14.04-.281.076-.422.112C17.313,32.907,17.453,32.871,17.594,32.83Z" transform="translate(-13.803 -6.855)"/><path class="a" d="M18.53,32.53c-.14.05-.28.1-.42.142C18.25,32.626,18.39,32.579,18.53,32.53Z" transform="translate(-13.803 -6.855)"/><path class="a" d="M34.343,28.036c.058.015.114.033.171.049C34.457,28.069,34.4,28.051,34.343,28.036Z" transform="translate(-13.803 -7.216)"/><path class="a" d="M41.043,31.514q.164.14.323.284C41.259,31.7,41.152,31.607,41.043,31.514Z" transform="translate(-13.803 -6.855)"/><path class="a" d="M40.285,30.907c.107.081.214.162.319.246C40.5,31.069,40.392,30.988,40.285,30.907Z" transform="translate(-13.803 -7.098)"/><path class="a" d="M41.762,32.166c.109.1.214.213.32.321C41.976,32.379,41.871,32.271,41.762,32.166Z" transform="translate(-13.803 -6.855)"/><path class="a" d="M39.495,30.347c.1.068.205.135.305.2C39.7,30.483,39.6,30.415,39.495,30.347Z" transform="translate(-13.803 -7.121)"/><path class="a" d="M37.957,29.437l.115.058C38.034,29.474,37.995,29.456,37.957,29.437Z" transform="translate(-13.803 -7.161)"/><path class="a" d="M38.692,29.846c.087.051.177.1.263.153C38.869,29.947,38.78,29.9,38.692,29.846Z" transform="translate(-13.803 -7.142)"/><path class="a" d="M42.546,32.985l.008,0c-.038-.043-.078-.084-.116-.126C42.475,32.9,42.509,32.943,42.546,32.985Z" transform="translate(-13.803 -6.855)"/><path class="a" d="M44.09,35.05c-.143-.234-.292-.464-.449-.69-.079-.114-.165-.223-.248-.335-.108-.145-.214-.291-.328-.433-.1-.125-.206-.247-.311-.369-.069-.08-.138-.16-.208-.239-.037-.041-.071-.084-.108-.124-.116-.127-.236-.25-.356-.373s-.211-.215-.32-.321q-.2-.187-.4-.369c-.106-.1-.214-.19-.323-.284q-.216-.184-.439-.362c-.1-.083-.212-.165-.319-.246-.159-.12-.32-.239-.485-.354-.1-.07-.2-.137-.305-.2-.178-.118-.356-.236-.54-.348-.086-.053-.175-.1-.263-.153-.205-.12-.41-.24-.621-.352l-.115-.058a17.572,17.572,0,0,0-3.443-1.352c-.057-.016-.114-.034-.171-.049-.26-.069-.524-.13-.79-.188h0c-.079-.017-.158-.036-.237-.052-.259-.053-.521-.1-.785-.141l-.263-.041c-.264-.038-.529-.07-.8-.1a18.906,18.906,0,0,0-1.9-.1,18.631,18.631,0,0,0-2.757.211,16.808,16.808,0,0,1-11.136,6.5c-.246.338-.482.682-.7,1.039l4.16,2.21a11.9,11.9,0,0,1,10.431-5.683A11.9,11.9,0,0,1,40,37.367l4.159-2.21C44.138,35.121,44.112,35.087,44.09,35.05Z" transform="translate(-13.803 -6.855)"/><path class="a" d="M13.8,33.412h0v0Z" transform="translate(-13.803 -6.855)"/><path class="a" d="M28.944,9.311c-.169-.4-.349-.791-.55-1.171L24.4,10.75a12.925,12.925,0,0,1-.294,12.411,11.844,11.844,0,0,1-10.137,6.471L13.8,34.549c.2,0,.4-.019.6-.031.11-.007.219-.009.329-.019.185-.016.369-.043.553-.066.135-.018.27-.031.4-.053.179-.028.357-.065.536-.1.088-.018.176-.034.264-.054.051-.011.1-.02.154-.031.176-.04.35-.087.525-.133.141-.038.282-.075.422-.117.173-.051.344-.108.516-.166.14-.048.281-.1.42-.148.17-.063.34-.13.508-.2.139-.057.277-.117.415-.179.167-.074.334-.15.5-.231.136-.067.272-.138.407-.208.164-.086.328-.171.491-.263.133-.075.264-.157.4-.236.161-.1.323-.192.482-.3.128-.084.253-.173.38-.261.158-.109.318-.215.473-.33.088-.065.173-.137.26-.2.322-.248.638-.51.947-.784.126-.112.254-.221.378-.337s.266-.261.4-.393.248-.245.369-.373.252-.276.376-.416c.044-.049.086-.1.13-.148.075-.087.152-.17.226-.259.12-.143.237-.291.354-.438s.228-.291.339-.439.223-.305.332-.46a19.768,19.768,0,0,0,1.118-1.781,20.056,20.056,0,0,0,1.2-2.6A18.3,18.3,0,0,1,28.944,9.311Z" transform="translate(-13.803 -7.995)"/><path class="a" d="M44.919,29.487a11.837,11.837,0,0,1-10.137-6.471A12.925,12.925,0,0,1,34.488,10.6L30.494,8a15.53,15.53,0,0,0-1.078,2.587,18.369,18.369,0,0,0,.049,10.842,19.932,19.932,0,0,0,.8,2.181q.365.831.813,1.643a19.6,19.6,0,0,0,1.565,2.39,16.666,16.666,0,0,1,11.192,6.68c.415.046.831.079,1.246.088Z" transform="translate(-13.803 -7.995)"/><g transform="translate(40.745 6.379)"><path class="a" d="M64.775,13.771,73.342,32.23H70.056l-1.319-2.848H59.176L57.834,32.23H54.548l8.677-18.459ZM60.6,26.353h6.731L64,19.148Z" transform="translate(-54.548 -13.771)"/><path class="a" d="M94.7,29.2V32.23H84.451V13.771h3.055V29.2Z" transform="translate(-54.548 -13.771)"/><path class="a" d="M118.754,32.23l-6.164-7.186-2.664,2.966v4.22H106.9V13.8h3.029v9.65l8.725-9.675h4.065l-8.06,8.973,7.956,9.486h-3.858Z" transform="translate(-54.548 -13.771)"/><path class="a" d="M146.741,16.826h-8.7v4.66h5.8v3.029h-5.8V29.2h8.7V32.23H135.013V13.771h11.728Z" transform="translate(-54.548 -13.771)"/><path class="a" d="M175.186,13.771h2.362V32.23h-3.029V20.114l-6.562,10.657-6.616-10.7V32.23h-3.029V13.771h2.382l7.259,11.691Z" transform="translate(-54.548 -13.771)"/><rect class="a" width="3.342" height="18.301" transform="translate(134.168 0.079)"/></g></svg>