<svg xmlns="http://www.w3.org/2000/svg" xmlns:xlink="http://www.w3.org/1999/xlink" width="1342" height="241" viewBox="0 0 1342 241">
  <defs>
    <clipPath id="clip-path">
      <rect id="Rectangle_4" data-name="Rectangle 4" width="1354" height="241"/>
    </clipPath>
    <clipPath id="clip-path-2">
      <rect id="Rectangle_4-2" data-name="Rectangle 4" width="1371" height="270" transform="translate(2 -3)" fill="#2626c1"/>
    </clipPath>
    <clipPath id="clip-main-logo-white-svg">
      <rect width="1342" height="241"/>
    </clipPath>
  </defs>
  <g id="main-logo-white-svg" clip-path="url(#clip-main-logo-white-svg)">
    <g id="e" transform="translate(-12)" clip-path="url(#clip-path)">
      <g id="Web_1920_17" data-name="Web 1920 – 17" transform="translate(6 -6)" clip-path="url(#clip-path-2)">
        <g id="alkemi-logo-horizontal-disk-all-white-cutout" transform="translate(310.248 57.396)">
          <g id="Group_38" data-name="Group 38" transform="translate(6)">
            <g id="Group_37" data-name="Group 37">
              <path id="Path_82" data-name="Path 82" d="M131.084,17.219,195.2,155.361H170.6l-9.871-21.344H89.183L79.139,155.331H54.548L119.484,17.189Zm-31.245,94.16h50.373l-24.928-53.92Z" transform="translate(-54.548 -17.189)" fill="#fff"/>
              <path id="Path_83" data-name="Path 83" d="M161.152,132.667v22.668h-76.7V17.193h22.863V132.667Z" transform="translate(139.334 -17.163)" fill="#fff"/>
              <path id="Path_84" data-name="Path 84" d="M195.612,155.328l-46.13-53.778-19.937,22.2v31.581H106.9V17.381h22.668V89.6l65.3-72.4h30.421L164.966,84.345l59.54,70.99H195.634Z" transform="translate(284.887 -17.157)" fill="#fff"/>
              <path id="Path_85" data-name="Path 85" d="M222.782,40.056H157.674V74.93H201.08V97.6H157.674v35.069h65.108v22.668H135.013V17.193h87.769Z" transform="translate(467.164 -17.163)" fill="#fff"/>
              <path id="Path_86" data-name="Path 86" d="M284.592,17.193h17.676V155.335H279.6V64.662l-49.108,79.754L180.98,64.34v91H158.312V17.193h17.826l54.324,87.492Z" transform="translate(618.228 -17.163)" fill="#fff"/>
            </g>
            <rect id="Rectangle_25" data-name="Rectangle 25" width="25.011" height="136.959" transform="translate(1004.074 0.621)" fill="#fff"/>
          </g>
        </g>
        <g id="Group_30" data-name="Group 30" transform="translate(7.194 7.251)">
          <g id="Group_29" data-name="Group 29">
            <path id="Path_6" data-name="Path 6" d="M18.57,33.248c-1.1.159-2.165.274-3.283.411C16.384,33.522,17.473,33.407,18.57,33.248Z" transform="translate(-3.237 171.436)" fill="#fff"/>
            <path id="Path_7" data-name="Path 7" d="M16.228,33.518c.722-.13,1.4-.224,2.107-.375l.043-.043Z" transform="translate(3.456 170.387)" fill="#fff"/>
            <path id="Path_8" data-name="Path 8" d="M17.075,33.362c-.9.072-1.775.087-2.67.144C15.285,33.449,16.18,33.434,17.075,33.362Z" transform="translate(-9.506 172.246)" fill="#fff"/>
            <path id="Path_9" data-name="Path 9" d="M25.437,29.627h.051c.6-.657,1.2-1.32,1.782-1.991C26.678,28.293,26.05,28.949,25.437,29.627Z" transform="translate(68.9 131.554)" fill="#fff"/>
            <path id="Path_10" data-name="Path 10" d="M26.018,30.2c.924-1.118,1.847-2.251,2.749-3.406C27.865,27.948,26.942,29.074,26.018,30.2Z" transform="translate(73.03 125.57)" fill="#fff"/>
            <path id="Path_11" data-name="Path 11" d="M34.427,27.946l-2.165-.332C33.012,27.708,33.727,27.83,34.427,27.946Z" transform="translate(117.411 131.396)" fill="#fff"/>
            <path id="Path_12" data-name="Path 12" d="M44.234,34.907c-.541-.642-1.061-1.3-1.624-1.919h-.065C43.116,33.6,43.657,34.251,44.234,34.907Z" transform="translate(190.489 169.59)" fill="#fff"/>
            <path id="Path_13" data-name="Path 13" d="M43.641,34.36c1.27,1.833,2.482,3.694,3.608,5.592C46.123,38.062,44.911,36.193,43.641,34.36Z" transform="translate(198.276 179.344)" fill="#fff"/>
            <path id="Path_14" data-name="Path 14" d="M35.235,28.215c-.642-.137-1.27-.289-1.919-.419C33.922,27.926,34.6,28.07,35.235,28.215Z" transform="translate(124.893 132.693)" fill="#fff"/>
            <path id="Path_15" data-name="Path 15" d="M43.065,33.592c.916,1.154,1.782,2.338,2.663,3.507C44.847,35.93,43.981,34.746,43.065,33.592Z" transform="translate(194.176 173.885)" fill="#fff"/>
            <path id="Path_16" data-name="Path 16" d="M16.488,33.352l1.284-.281c-.411.087-.837.152-1.248.245Z" transform="translate(5.303 170.178)" fill="#fff"/>
            <path id="Path_17" data-name="Path 17" d="M25.308,29.041l1.1-1.162h-.051C25.972,28.276,25.654,28.665,25.308,29.041Z" transform="translate(67.982 133.281)" fill="#fff"/>
            <path id="Path_18" data-name="Path 18" d="M24.808,30.737c-1.032.678-2.042,1.378-3.081,2.028C22.766,32.115,23.783,31.415,24.808,30.737Z" transform="translate(42.535 153.592)" fill="#fff"/>
            <path id="Path_19" data-name="Path 19" d="M27.557,28.42c-.981.989-1.984,1.941-2.994,2.886C25.552,30.361,26.576,29.409,27.557,28.42Z" transform="translate(62.688 137.127)" fill="#fff"/>
            <path id="Path_20" data-name="Path 20" d="M24.055,31.27c-1.068.613-2.121,1.248-3.2,1.833C21.926,32.518,22.98,31.883,24.055,31.27Z" transform="translate(36.311 157.381)" fill="#fff"/>
            <path id="Path_21" data-name="Path 21" d="M23.251,31.748c-1.1.548-2.165,1.1-3.3,1.616C21.057,32.845,22.147,32.3,23.251,31.748Z" transform="translate(29.928 160.778)" fill="#fff"/>
            <path id="Path_22" data-name="Path 22" d="M26.854,29.153c-1,.9-2.042,1.746-3.067,2.612C24.812,30.935,25.843,30.055,26.854,29.153Z" transform="translate(57.172 142.333)" fill="#fff"/>
            <path id="Path_23" data-name="Path 23" d="M24.687,30.226c-.722.52-1.393,1.075-2.107,1.58C23.3,31.3,23.98,30.76,24.687,30.226Z" transform="translate(48.595 149.962)" fill="#fff"/>
            <path id="Path_24" data-name="Path 24" d="M22.4,32.168q-1.678.714-3.362,1.385C20.188,33.12,21.307,32.644,22.4,32.168Z" transform="translate(23.401 163.764)" fill="#fff"/>
            <path id="Path_25" data-name="Path 25" d="M20.592,32.83c-1.133.325-2.28.613-3.42.909C18.312,33.458,19.452,33.162,20.592,32.83Z" transform="translate(10.161 168.47)" fill="#fff"/>
            <path id="Path_26" data-name="Path 26" d="M21.516,32.53c-1.133.4-2.273.786-3.406,1.154C19.243,33.309,20.383,32.927,21.516,32.53Z" transform="translate(16.828 166.339)" fill="#fff"/>
            <path id="Path_27" data-name="Path 27" d="M34.343,28.036c.469.123.924.267,1.385.4C35.267,28.3,34.812,28.159,34.343,28.036Z" transform="translate(132.193 134.394)" fill="#fff"/>
            <path id="Path_28" data-name="Path 28" d="M41.043,31.514q1.328,1.133,2.619,2.3C42.8,33.036,41.923,32.264,41.043,31.514Z" transform="translate(179.812 159.115)" fill="#fff"/>
            <path id="Path_29" data-name="Path 29" d="M40.285,30.907c.866.657,1.732,1.313,2.583,1.991C42.017,32.22,41.151,31.578,40.285,30.907Z" transform="translate(174.422 154.8)" fill="#fff"/>
            <path id="Path_30" data-name="Path 30" d="M41.762,32.166c.88.851,1.732,1.725,2.6,2.6C43.479,33.891,42.642,33.017,41.762,32.166Z" transform="translate(184.916 163.752)" fill="#fff"/>
            <path id="Path_31" data-name="Path 31" d="M39.5,30.347c.83.548,1.66,1.1,2.475,1.66C41.123,31.451,40.294,30.9,39.5,30.347Z" transform="translate(168.836 150.822)" fill="#fff"/>
            <path id="Path_32" data-name="Path 32" d="M37.957,29.437l.931.469C38.585,29.74,38.267,29.589,37.957,29.437Z" transform="translate(157.874 144.35)" fill="#fff"/>
            <path id="Path_33" data-name="Path 33" d="M38.692,29.846c.722.411,1.443.815,2.165,1.241C40.128,30.661,39.406,30.236,38.692,29.846Z" transform="translate(163.099 147.261)" fill="#fff"/>
            <path id="Path_34" data-name="Path 34" d="M43.311,33.883h.065c-.31-.346-.635-.678-.938-1.025C42.741,33.2,43.015,33.543,43.311,33.883Z" transform="translate(189.723 168.666)" fill="#fff"/>
            <path id="Path_35" data-name="Path 35" d="M251.079,89.373q-1.743-2.847-3.608-5.592c-.642-.924-1.335-1.811-2.013-2.713-.873-1.176-1.732-2.359-2.663-3.507-.808-1.01-1.667-2.006-2.518-2.994-.563-.649-1.118-1.3-1.688-1.941-.3-.332-.577-.678-.873-1-.938-1.032-1.912-2.028-2.886-3.023-.851-.873-1.71-1.746-2.6-2.6q-1.58-1.522-3.218-2.994c-.859-.779-1.732-1.537-2.619-2.3q-1.753-1.494-3.557-2.937c-.851-.671-1.717-1.335-2.583-1.992-1.292-.974-2.6-1.941-3.932-2.886-.808-.57-1.645-1.111-2.475-1.66-1.443-.96-2.886-1.912-4.38-2.821-.722-.433-1.443-.83-2.165-1.241-1.66-.974-3.326-1.948-5.051-2.886l-.931-.469a142.457,142.457,0,0,0-27.91-10.96c-.462-.13-.924-.274-1.385-.4-2.107-.563-4.25-1.053-6.407-1.523h0c-.642-.137-1.284-.289-1.919-.418-2.1-.433-4.221-.8-6.364-1.14l-2.165-.332c-2.165-.31-4.286-.57-6.494-.786a153.253,153.253,0,0,0-15.412-.844,151.036,151.036,0,0,0-22.368,1.71A136.259,136.259,0,0,1,20.613,81.79c-1.992,2.742-3.911,5.527-5.65,8.421L48.8,108.177a96.494,96.494,0,0,1,84.559-46.072,96.494,96.494,0,0,1,84.567,46.072l33.718-17.916C251.468,89.944,251.259,89.669,251.079,89.373Z" transform="translate(-5.525 129.923)" fill="#fff"/>
            <path id="Path_36" data-name="Path 36" d="M13.8,33.412Z" transform="translate(-13.8 172.6)" fill="#fff"/>
            <path id="Path_37" data-name="Path 37" d="M136.566,17.219c-1.371-3.088-2.828-6.14-4.459-9.077L99.73,28.382a96.48,96.48,0,0,1-2.381,96.27,96.516,96.516,0,0,1-82.178,50.184L13.8,212.978c1.624,0,3.254-.144,4.871-.245.9-.058,1.775-.072,2.67-.144,1.5-.123,2.994-.332,4.481-.512,1.1-.137,2.165-.245,3.283-.411,1.443-.216,2.886-.505,4.329-.779.722-.137,1.443-.267,2.165-.418.411-.087.837-.152,1.248-.245,1.443-.31,2.836-.671,4.257-1.032,1.14-.289,2.287-.584,3.42-.909,1.4-.4,2.785-.837,4.185-1.292,1.133-.375,2.28-.722,3.406-1.155,1.378-.483,2.756-1,4.12-1.537q1.688-.671,3.362-1.385c1.357-.577,2.706-1.169,4.055-1.789,1.1-.52,2.208-1.068,3.3-1.616,1.328-.664,2.663-1.328,3.983-2.042,1.075-.584,2.165-1.219,3.2-1.833,1.306-.722,2.619-1.494,3.911-2.295,1.039-.649,2.049-1.349,3.081-2.028,1.284-.844,2.576-1.667,3.831-2.562.722-.505,1.4-1.061,2.107-1.58q3.918-2.879,7.677-6.083c1.025-.866,2.056-1.71,3.067-2.612s2.165-2.028,3.225-3.045,2.013-1.9,3-2.886,2.042-2.165,3.045-3.225c.354-.382.722-.765,1.053-1.154.606-.671,1.234-1.32,1.833-2.013.974-1.111,1.919-2.251,2.886-3.4s1.847-2.251,2.749-3.406,1.811-2.367,2.691-3.564a146.267,146.267,0,0,0,18.761-34.014,136.281,136.281,0,0,1-.483-104.547Z" transform="translate(-13.8 -6.988)" fill="#fff"/>
            <path id="Path_38" data-name="Path 38" d="M160.739,174.68a96.465,96.465,0,0,1-82.178-50.2A96.48,96.48,0,0,1,76.18,28.21L43.8,8a117.613,117.613,0,0,0-8.738,20.067,136.613,136.613,0,0,0,.4,84.1,150.4,150.4,0,0,0,6.494,16.921q2.958,6.444,6.588,12.743a151.53,151.53,0,0,0,12.685,18.537,136.244,136.244,0,0,1,90.729,51.822c3.362.354,6.739.613,10.1.678Z" transform="translate(91.533 -8)" fill="#fff"/>
          </g>
        </g>
      </g>
    </g>
  </g>
</svg>
