<svg xmlns="http://www.w3.org/2000/svg" xmlns:xlink="http://www.w3.org/1999/xlink" width="432" height="398" viewBox="0 0 432 398">
  <defs>
    <clipPath id="clip-path">
      <rect id="Rectangle_4" data-name="Rectangle 4" width="444" height="396"/>
    </clipPath>
    <clipPath id="clip-main-logo-white-icon-svg">
      <rect width="432" height="398"/>
    </clipPath>
  </defs>
  <g id="main-logo-white-icon-svg" clip-path="url(#clip-main-logo-white-icon-svg)">
    <g id="e" transform="translate(-15)" clip-path="url(#clip-path)">
      <g id="Group_2" data-name="Group 2" transform="translate(13.152 -14.796)">
        <g id="Group_30" data-name="Group 30" transform="translate(8.539 16.853)">
          <g id="Group_29" data-name="Group 29">
            <path id="Path_6" data-name="Path 6" d="M20.684,33.248c-1.808.261-3.559.45-5.4.676C17.09,33.7,18.881,33.509,20.684,33.248Z" transform="translate(4.523 303.256)" fill="#fff"/>
            <path id="Path_7" data-name="Path 7" d="M16.228,33.787c1.187-.214,2.3-.368,3.464-.617l.071-.071Z" transform="translate(16.133 301.436)" fill="#fff"/>
            <path id="Path_8" data-name="Path 8" d="M18.795,33.362c-1.471.118-2.918.143-4.39.237C15.852,33.505,17.323,33.48,18.795,33.362Z" transform="translate(-6.351 304.661)" fill="#fff"/>
            <path id="Path_9" data-name="Path 9" d="M25.437,30.909h.084c.986-1.08,1.973-2.17,2.93-3.273C27.477,28.716,26.445,29.795,25.437,30.909Z" transform="translate(129.655 234.075)" fill="#fff"/>
            <path id="Path_10" data-name="Path 10" d="M26.018,32.394c1.519-1.838,3.037-3.7,4.519-5.6C29.055,28.691,27.537,30.542,26.018,32.394Z" transform="translate(136.819 223.695)" fill="#fff"/>
            <path id="Path_11" data-name="Path 11" d="M35.821,28.16l-3.559-.546C33.5,27.769,34.67,27.969,35.821,28.16Z" transform="translate(213.803 233.801)" fill="#fff"/>
            <path id="Path_12" data-name="Path 12" d="M45.322,36.143c-.889-1.055-1.744-2.137-2.67-3.155h-.107C43.484,33.994,44.373,35.064,45.322,36.143Z" transform="translate(340.567 300.054)" fill="#fff"/>
            <path id="Path_13" data-name="Path 13" d="M43.641,34.36c2.088,3.013,4.08,6.073,5.932,9.193C47.721,40.446,45.729,37.373,43.641,34.36Z" transform="translate(354.075 316.973)" fill="#fff"/>
            <path id="Path_14" data-name="Path 14" d="M36.471,28.485c-1.055-.225-2.088-.475-3.155-.689C34.312,28.01,35.427,28.246,36.471,28.485Z" transform="translate(226.782 236.051)" fill="#fff"/>
            <path id="Path_15" data-name="Path 15" d="M43.065,33.592c1.506,1.9,2.93,3.844,4.378,5.766C45.995,37.436,44.571,35.489,43.065,33.592Z" transform="translate(346.963 307.504)" fill="#fff"/>
            <path id="Path_16" data-name="Path 16" d="M16.488,33.533l2.111-.462c-.676.143-1.376.25-2.052.4Z" transform="translate(19.337 301.074)" fill="#fff"/>
            <path id="Path_17" data-name="Path 17" d="M25.308,29.789l1.808-1.91h-.084C26.4,28.532,25.877,29.171,25.308,29.789Z" transform="translate(128.062 237.071)" fill="#fff"/>
            <path id="Path_18" data-name="Path 18" d="M26.792,30.737c-1.7,1.115-3.357,2.265-5.065,3.334C23.435,33,25.107,31.852,26.792,30.737Z" transform="translate(83.921 272.303)" fill="#fff"/>
            <path id="Path_19" data-name="Path 19" d="M29.485,28.42c-1.613,1.626-3.262,3.191-4.922,4.745C26.189,31.611,27.872,30.046,29.485,28.42Z" transform="translate(118.879 243.742)" fill="#fff"/>
            <path id="Path_20" data-name="Path 20" d="M26.116,31.27c-1.756,1.008-3.487,2.052-5.261,3.013C22.616,33.322,24.349,32.278,26.116,31.27Z" transform="translate(73.127 278.876)" fill="#fff"/>
            <path id="Path_21" data-name="Path 21" d="M25.376,31.748c-1.808.9-3.559,1.808-5.425,2.657C21.769,33.551,23.561,32.655,25.376,31.748Z" transform="translate(62.051 284.768)" fill="#fff"/>
            <path id="Path_22" data-name="Path 22" d="M28.829,29.153c-1.644,1.48-3.357,2.87-5.042,4.294C25.472,32.083,27.167,30.636,28.829,29.153Z" transform="translate(109.311 252.773)" fill="#fff"/>
            <path id="Path_23" data-name="Path 23" d="M26.044,30.226c-1.187.855-2.29,1.767-3.464,2.6C23.764,31.992,24.882,31.1,26.044,30.226Z" transform="translate(94.433 266.006)" fill="#fff"/>
            <path id="Path_24" data-name="Path 24" d="M24.565,32.168q-2.759,1.174-5.527,2.277C20.929,33.733,22.768,32.951,24.565,32.168Z" transform="translate(50.732 289.948)" fill="#fff"/>
            <path id="Path_25" data-name="Path 25" d="M22.795,32.83c-1.863.534-3.748,1.008-5.623,1.494C19.046,33.862,20.92,33.376,22.795,32.83Z" transform="translate(27.764 298.111)" fill="#fff"/>
            <path id="Path_26" data-name="Path 26" d="M23.71,32.53c-1.863.658-3.737,1.292-5.6,1.9C19.973,33.811,21.847,33.183,23.71,32.53Z" transform="translate(39.329 294.414)" fill="#fff"/>
            <path id="Path_27" data-name="Path 27" d="M34.343,28.036c.771.2,1.519.439,2.277.658C35.862,28.47,35.114,28.238,34.343,28.036Z" transform="translate(239.445 239.002)" fill="#fff"/>
            <path id="Path_28" data-name="Path 28" d="M41.043,31.514q2.183,1.863,4.306,3.781C43.932,34.016,42.49,32.747,41.043,31.514Z" transform="translate(322.047 281.883)" fill="#fff"/>
            <path id="Path_29" data-name="Path 29" d="M40.285,30.907c1.424,1.08,2.847,2.159,4.246,3.273C43.132,33.066,41.709,32.01,40.285,30.907Z" transform="translate(312.697 274.399)" fill="#fff"/>
            <path id="Path_30" data-name="Path 30" d="M41.762,32.166c1.447,1.4,2.847,2.836,4.274,4.274C44.585,35,43.209,33.565,41.762,32.166Z" transform="translate(330.901 289.927)" fill="#fff"/>
            <path id="Path_31" data-name="Path 31" d="M39.5,30.347c1.365.9,2.729,1.808,4.069,2.729C42.168,32.162,40.805,31.256,39.5,30.347Z" transform="translate(303.008 267.498)" fill="#fff"/>
            <path id="Path_32" data-name="Path 32" d="M37.957,29.437l1.531.771C38.989,29.935,38.467,29.687,37.957,29.437Z" transform="translate(283.993 256.272)" fill="#fff"/>
            <path id="Path_33" data-name="Path 33" d="M38.692,29.846c1.187.676,2.372,1.34,3.559,2.04C41.053,31.186,39.866,30.487,38.692,29.846Z" transform="translate(293.056 261.321)" fill="#fff"/>
            <path id="Path_34" data-name="Path 34" d="M43.873,34.543h.107c-.51-.569-1.044-1.115-1.542-1.685C42.936,33.42,43.387,33.984,43.873,34.543Z" transform="translate(339.239 298.451)" fill="#fff"/>
            <path id="Path_35" data-name="Path 35" d="M403.142,129.276q-2.866-4.681-5.932-9.193c-1.055-1.519-2.195-2.977-3.309-4.46-1.435-1.933-2.847-3.878-4.378-5.766-1.328-1.66-2.741-3.3-4.14-4.922-.926-1.067-1.838-2.137-2.775-3.191-.493-.546-.949-1.115-1.435-1.644-1.542-1.7-3.143-3.334-4.745-4.97-1.4-1.435-2.811-2.87-4.274-4.274q-2.6-2.5-5.29-4.922c-1.412-1.281-2.847-2.527-4.306-3.781q-2.882-2.456-5.848-4.828c-1.4-1.1-2.823-2.195-4.246-3.275-2.124-1.6-4.274-3.191-6.464-4.745-1.328-.937-2.7-1.826-4.069-2.729-2.372-1.578-4.745-3.143-7.2-4.638-1.187-.712-2.372-1.365-3.559-2.04-2.729-1.6-5.468-3.2-8.3-4.745l-1.531-.771a234.2,234.2,0,0,0-45.885-18.018c-.76-.214-1.519-.45-2.277-.658-3.464-.926-6.987-1.731-10.533-2.5h0c-1.055-.225-2.111-.475-3.155-.687-3.452-.712-6.939-1.315-10.463-1.874l-3.559-.546c-3.559-.51-7.046-.937-10.676-1.292a251.95,251.95,0,0,0-25.338-1.388,248.306,248.306,0,0,0-36.773,2.811A224.012,224.012,0,0,1,24.252,116.809c-3.275,4.508-6.43,9.086-9.289,13.844L70.592,160.19A158.638,158.638,0,0,1,209.608,84.447a158.638,158.638,0,0,1,139.03,75.743l55.433-29.454C403.781,130.214,403.438,129.762,403.142,129.276Z" transform="translate(0.553 231.251)" fill="#fff"/>
            <path id="Path_36" data-name="Path 36" d="M13.8,33.412Z" transform="translate(-13.8 305.275)" fill="#fff"/>
            <path id="Path_37" data-name="Path 37" d="M215.629,23.065c-2.254-5.077-4.649-10.094-7.331-14.923L155.07,41.417a158.615,158.615,0,0,1-3.914,158.27,158.674,158.674,0,0,1-135.1,82.5L13.8,344.9c2.67,0,5.35-.237,8.008-.4,1.471-.1,2.918-.118,4.39-.237,2.466-.2,4.922-.546,7.367-.842,1.808-.225,3.559-.4,5.4-.676,2.372-.355,4.745-.83,7.117-1.281,1.187-.225,2.372-.439,3.559-.687.676-.143,1.376-.25,2.052-.4,2.372-.51,4.662-1.1,7-1.7,1.874-.475,3.76-.96,5.623-1.494,2.3-.658,4.579-1.376,6.88-2.124,1.863-.616,3.748-1.187,5.6-1.9,2.265-.794,4.531-1.644,6.773-2.527q2.775-1.1,5.527-2.277c2.231-.949,4.449-1.922,6.666-2.941,1.808-.855,3.63-1.756,5.425-2.657,2.183-1.092,4.378-2.183,6.548-3.357,1.767-.96,3.559-2,5.261-3.013,2.147-1.187,4.306-2.456,6.43-3.773,1.708-1.067,3.369-2.218,5.065-3.334,2.111-1.388,4.235-2.741,6.3-4.212,1.187-.83,2.3-1.744,3.464-2.6q6.441-4.733,12.621-10c1.685-1.424,3.38-2.811,5.042-4.294s3.559-3.334,5.3-5.006,3.309-3.124,4.924-4.745,3.357-3.559,5.006-5.3c.582-.628,1.187-1.258,1.731-1.9,1-1.1,2.029-2.17,3.013-3.309,1.6-1.827,3.155-3.7,4.745-5.59s3.036-3.7,4.519-5.6,2.977-3.891,4.424-5.859a240.465,240.465,0,0,0,30.843-55.92,224.048,224.048,0,0,1-.794-171.877Z" transform="translate(-13.8 -6.245)" fill="#fff"/>
            <path id="Path_38" data-name="Path 38" d="M245.821,282.025a158.59,158.59,0,0,1-135.1-82.53A158.615,158.615,0,0,1,106.8,41.226L53.571,8A193.358,193.358,0,0,0,39.206,40.99a224.594,224.594,0,0,0,.658,138.262A247.258,247.258,0,0,0,50.54,207.071q4.863,10.594,10.831,20.95A249.12,249.12,0,0,0,82.225,258.5a223.988,223.988,0,0,1,149.16,85.2c5.527.582,11.079,1.008,16.6,1.115Z" transform="translate(168.919 -8)" fill="#fff"/>
          </g>
        </g>
      </g>
    </g>
  </g>
</svg>
